<?xml version="1.0" encoding="UTF-8" standalone="no"?>
<!DOCTYPE svg PUBLIC "-//W3C//DTD SVG 1.1//EN" "http://www.w3.org/Graphics/SVG/1.1/DTD/svg11.dtd">
<svg width="100%" height="100%" viewBox="0 0 571 1540" version="1.1" xmlns="http://www.w3.org/2000/svg" xmlns:xlink="http://www.w3.org/1999/xlink" xml:space="preserve" xmlns:serif="http://www.serif.com/" style="fill-rule:evenodd;clip-rule:evenodd;stroke-linejoin:round;stroke-miterlimit:2;">
    <g id="Artboard1" transform="matrix(1,0,0,1,-633.789,-148.072)">
        <rect x="633.789" y="148.072" width="570.694" height="1539.33" style="fill:none;"/>
        <g transform="matrix(1,0,0,1,633.789,148.072)">
            <path d="M256.636,471.271C226.369,443.445 202.315,438.513 184.384,442.486C156.92,448.571 143.459,475.816 143.202,476.25C143.126,476.377 143.065,476.512 143.019,476.652C131.113,512.825 146.821,545.272 170.128,571.137C204.63,609.424 255.683,633.194 255.683,633.194C255.986,633.335 256.313,633.397 256.636,633.381C256.96,633.397 257.287,633.335 257.59,633.194C257.59,633.194 308.643,609.424 343.144,571.137C366.452,545.272 382.159,512.825 370.254,476.652C370.208,476.512 370.146,476.377 370.071,476.25C369.813,475.816 356.353,448.571 328.889,442.486C310.958,438.513 286.904,443.445 256.636,471.271Z"/>
        </g>
        <g transform="matrix(0.517328,0,0,0.517328,933.66,125.427)">
            <path d="M256.636,471.271C226.369,443.445 202.315,438.513 184.384,442.486C156.92,448.571 143.459,475.816 143.202,476.25C143.126,476.377 143.065,476.512 143.019,476.652C131.113,512.825 146.821,545.272 170.128,571.137C204.63,609.424 255.683,633.194 255.683,633.194C255.986,633.335 256.313,633.397 256.636,633.381C256.96,633.397 257.287,633.335 257.59,633.194C257.59,633.194 308.643,609.424 343.144,571.137C366.452,545.272 382.159,512.825 370.254,476.652C370.208,476.512 370.146,476.377 370.071,476.25C369.813,475.816 356.353,448.571 328.889,442.486C310.958,438.513 286.904,443.445 256.636,471.271Z"/>
        </g>
        <g transform="matrix(0.239471,0,0,0.239471,936.968,50.7286)">
            <path d="M256.636,471.271C226.369,443.445 202.315,438.513 184.384,442.486C156.92,448.571 143.459,475.816 143.202,476.25C143.126,476.377 143.065,476.512 143.019,476.652C131.113,512.825 146.821,545.272 170.128,571.137C204.63,609.424 255.683,633.194 255.683,633.194C255.986,633.335 256.313,633.397 256.636,633.381C256.96,633.397 257.287,633.335 257.59,633.194C257.59,633.194 308.643,609.424 343.144,571.137C366.452,545.272 382.159,512.825 370.254,476.652C370.208,476.512 370.146,476.377 370.071,476.25C369.813,475.816 356.353,448.571 328.889,442.486C310.958,438.513 286.904,443.445 256.636,471.271Z"/>
        </g>
    </g>
    <g id="Layer1">
        <path d="M153.846,848.286L70.789,943.006C16.44,1004.99 3.271,1092.99 37.096,1168.17C70.663,1242.77 111.956,1334.54 132.41,1380C139.403,1395.54 141.605,1412.81 138.736,1429.61C138.346,1431.89 137.955,1434.19 137.57,1436.44C133.653,1459.37 147.371,1481.65 169.611,1488.47C183.249,1492.65 214.83,1501.53 231.569,1506.67C272.344,1519.18 306.878,1518.67 348.314,1508.57C373.237,1502.49 395.431,1494 414.11,1489.45C433.798,1484.64 448.894,1468.83 452.775,1448.94C457.806,1423.16 465.893,1381.71 470.174,1359.77C472.533,1347.68 472.094,1335.21 468.893,1323.32C465.548,1310.9 460.685,1292.84 456.904,1278.79C454.382,1269.43 455.759,1259.44 460.721,1251.1C477.069,1223.63 506.917,1173.49 520.084,1151.37C526.395,1140.77 528.35,1128.13 525.538,1116.12C524.786,1112.9 523.933,1109.26 523.036,1105.42C516.449,1077.28 493.357,1056.46 465.425,1052.28L477.898,1029.6C485.771,1015.29 487.081,998.27 481.49,982.919C481.49,982.918 481.489,982.918 481.489,982.917C471.169,954.581 445.885,934.891 416.635,931.274L416.647,931.254C426.343,914.768 427.562,894.637 419.925,877.102C419.925,877.102 419.925,877.102 419.925,877.101C411.153,856.962 394.606,841.229 374.05,833.485C367.08,830.859 359.731,828.771 352.288,827.528C380.156,792.954 425.745,736.775 443.752,713.817C451.413,704.049 454.615,691.51 452.574,679.264C452.091,676.368 451.553,673.14 450.995,669.79C446.521,642.949 426.291,621.463 399.768,615.384C397.337,614.826 394.943,614.277 392.654,613.753C375.65,609.855 357.879,615.602 346.378,628.719C346.378,628.719 258.943,728.431 258.943,728.431L258.943,728.431C221.431,636.012 165.966,623.547 134.336,626.72C121.943,627.963 112.38,631.808 107.027,635.183C102.018,638.341 99.277,641.984 97.985,644.568C96.171,648.197 95.803,652.379 96.955,656.269L153.846,848.286ZM304.513,836.257C305.037,835.475 305.639,834.636 306.33,833.75C319.948,816.281 394.302,725.014 418.572,694.069C420.688,691.371 421.573,687.907 421.009,684.525C420.526,681.628 419.988,678.401 419.43,675.05C417.089,661.002 406.5,649.757 392.618,646.575C392.618,646.575 385.504,644.944 385.504,644.944C379.968,643.675 374.182,645.546 370.438,649.816L265.118,769.925C264.304,770.854 263.396,771.673 262.412,772.369C261.848,773.435 261.151,774.449 260.323,775.394C260.323,775.394 94.85,964.103 94.85,964.103C48.762,1016.66 37.595,1091.29 66.278,1155.04C99.845,1229.64 141.138,1321.41 161.592,1366.87C171.195,1388.21 174.219,1411.93 170.28,1435C169.89,1437.28 169.498,1439.58 169.113,1441.83C167.905,1448.9 172.136,1455.77 178.995,1457.88C192.633,1462.06 216.239,1468.28 232.977,1473.42C268.245,1484.24 312.868,1480.9 348.707,1472.16C373.629,1466.08 387.849,1462.91 406.528,1458.36C414.084,1456.52 419.878,1450.45 421.367,1442.81C426.398,1417.03 434.485,1375.58 438.766,1353.64C440.19,1346.34 439.925,1338.82 437.993,1331.64C434.648,1319.22 429.786,1301.16 426.004,1287.11C421.234,1269.39 423.838,1250.5 433.224,1234.73C449.572,1207.27 479.42,1157.12 492.586,1135C494.662,1131.52 495.305,1127.36 494.38,1123.41C494.38,1123.41 491.878,1112.71 491.878,1112.71C487.889,1095.67 472.731,1083.59 455.228,1083.51L446.993,1083.46L383.69,1171.22C378.524,1178.38 368.515,1180 361.353,1174.83C354.192,1169.67 352.572,1159.66 357.738,1152.5L425.287,1058.86L449.859,1014.18C453.285,1007.95 453.854,1000.55 451.422,993.869C451.422,993.869 451.421,993.868 451.421,993.868C444.395,974.575 425.751,961.995 405.231,962.701L396.641,962.996L270.344,1123.25C264.878,1130.18 254.809,1131.38 247.874,1125.91C240.938,1120.44 239.745,1110.38 245.211,1103.44L375.431,938.211L389.065,915.031C393.568,907.374 394.134,898.024 390.587,889.88C390.587,889.88 390.586,889.879 390.586,889.879C385.268,877.667 375.233,868.126 362.768,863.43C351.292,859.106 338.196,855.863 326.762,859.71L164.558,1065.2C159.087,1072.13 149.017,1073.31 142.086,1067.84C135.155,1062.37 133.969,1052.3 139.441,1045.37L304.253,836.578C304.339,836.469 304.426,836.362 304.513,836.257ZM235.009,755.717C223.197,769.039 196.951,799.011 178.778,819.787L131.477,660.139C136.274,659.005 142.706,657.979 148.703,658.603C175.356,661.377 209.981,683.425 235.009,755.717Z"/>
    </g>
</svg>
